<svg width="14" height="12" viewBox="0 0 14 12" fill="none" xmlns="http://www.w3.org/2000/svg">
<g id="icon/menu/cards">
<g id="document">
<path id="Shape" d="M3.7738 5.01302C4.28486 4.7822 4.77371 4.66674 5.24009 4.66674H11.4332V3.50005C11.4332 3.05285 11.2693 2.66864 10.9417 2.3478C10.6141 2.02698 10.2223 1.8666 9.76567 1.8666H5.71643V1.63328C5.71643 1.18607 5.55271 0.802043 5.22521 0.481302C4.89768 0.160485 4.50565 0 4.04913 0H1.6673C1.21078 0 0.818752 0.16046 0.491225 0.481302C0.163698 0.802069 0 1.18609 0 1.6333V8.63305C0 8.65257 0.00127747 8.68298 0.00375419 8.72438C0.00620484 8.76562 0.00750838 8.79607 0.00750838 8.81545L0.0446853 8.77193L2.55311 5.88432C2.85579 5.53429 3.2627 5.24379 3.7738 5.01302Z" transform="translate(0 0.863037)" fill="white"/>
<path id="Shape_2" d="M13.2454 0.095004C13.114 0.0317191 12.9639 0 12.7951 0H4.6967C4.3692 0 4.01315 0.0863464 3.62863 0.258962C3.24409 0.431757 2.94508 0.641686 2.73177 0.889794L0.230804 3.77717C0.0769348 3.94731 0 4.10777 0 4.25855C0 4.40433 0.0657765 4.50888 0.197251 4.57197C0.328726 4.63525 0.478816 4.66687 0.647572 4.66687H8.74619C9.07364 4.66687 9.42951 4.58052 9.81413 4.40801C10.1987 4.23547 10.4975 4.02521 10.7109 3.77717L13.2119 0.889794C13.3657 0.71963 13.4426 0.559349 13.4426 0.408415C13.4427 0.262666 13.377 0.158212 13.2454 0.095004Z" transform="translate(0.543396 6.46277)" fill="white"/>
</g>
</g>
</svg>
