<svg width="28" height="28" viewBox="0 0 28 28" fill="none" xmlns="http://www.w3.org/2000/svg">
<path d="M12 25C19.1797 25 25 19.1797 25 12C25 4.8203 19.1797 -1 12 -1C4.8203 -1 -1 4.8203 -1 12C-1 19.1797 4.8203 25 12 25Z" transform="translate(2 2)" fill="#F0F0F0" stroke="white" stroke-width="2"/>
<path d="M0 3.13045H12.5217C12.5217 2.04736 12.3773 0.998109 12.1083 0H0V3.13045Z" transform="translate(13.4783 10.8695)" fill="#D80027"/>
<path d="M0 3.13045H10.7604C10.0259 1.93177 9.08663 0.87225 7.99153 0H0V3.13045Z" transform="translate(13.4783 4.60864)" fill="#D80027"/>
<path d="M7.46981 2.60869C10.294 2.60869 12.8898 1.63256 14.9396 0H0C2.04984 1.63256 4.64564 2.60869 7.46981 2.60869Z" transform="translate(6.53019 23.3912)" fill="#D80027"/>
<path d="M1.34789 3.13045H21.8253C22.4151 2.16816 22.8724 1.11628 23.1732 0H0C0.300797 1.11628 0.758156 2.16816 1.34789 3.13045Z" transform="translate(2.41339 17.1304)" fill="#D80027"/>
<path fill-rule="evenodd" clip-rule="evenodd" d="M6.65218 1.87402H5.55862C7.41962 0.687622 9.62944 0 12 0V12H0C0 11.4933 0.0317841 10.9939 0.0927658 10.5037L0.702049 10.061L1.71918 10.8L1.33064 9.60425L2.34783 8.86523H1.09055L0.749908 7.81677C0.867798 7.49963 0.998955 7.18909 1.14234 6.88525L1.71918 7.30432L1.41 6.35278C1.50272 6.1792 1.59947 6.0083 1.70034 5.83997L2.34783 5.36963H1.99744C2.64431 4.39575 3.42928 3.52173 4.32487 2.77576L3.98925 3.80872L5.00639 3.0697L6.02353 3.80872L5.63498 2.61292L6.65218 1.87402ZM5.00639 10.061L6.02353 10.8L5.63498 9.60425L6.65218 8.86523H5.3949L5.00639 7.66956L4.61789 8.86523H3.36061L4.3778 9.60425L3.98925 10.8L5.00639 10.061ZM5.63498 6.10864L6.02353 7.30444L5.00639 6.56543L3.98925 7.30444L4.3778 6.10864L3.36061 5.36963H4.61789L5.00639 4.17395L5.3949 5.36963H6.65218L5.63498 6.10864ZM9.31073 10.061L10.3279 10.8L9.93932 9.60425L10.9565 8.86523H9.69923L9.31073 7.66956L8.92223 8.86523H7.66495L8.68213 9.60425L8.29359 10.8L9.31073 10.061ZM9.93932 6.10864L10.3279 7.30444L9.31073 6.56543L8.29359 7.30444L8.68213 6.10864L7.66495 5.36963H8.92223L9.31073 4.17395L9.69923 5.36963H10.9565L9.93932 6.10864ZM10.3279 3.80872L9.93932 2.61292L10.9565 1.8739H9.69923L9.31073 0.678223L8.92223 1.8739H7.66495L8.68213 2.61292L8.29359 3.80872L9.31073 3.0697L10.3279 3.80872Z" transform="translate(2 2)" fill="#0052B4"/>
</svg>
