<svg width="14" height="14" viewBox="0 0 14 14" fill="none" xmlns="http://www.w3.org/2000/svg">
<g id="icon/menu/settings">
<g id="settings-work-tool">
<path id="Shape" fill-rule="evenodd" clip-rule="evenodd" d="M13.5062 5.87806C13.7046 5.87806 13.9341 6.02589 13.9562 6.22279C14.0155 6.75294 14.0147 7.28834 13.9531 7.81471C13.9287 8.01954 13.7441 8.17409 13.5434 8.15785L13.4568 8.15565C12.838 8.15565 12.2627 8.53676 12.0248 9.10451C11.7716 9.70765 11.9297 10.4096 12.4169 10.8508C12.5697 10.989 12.588 11.2224 12.4588 11.3828C12.1259 11.7974 11.7451 12.1741 11.3263 12.5025C11.1651 12.627 10.9364 12.6088 10.798 12.4583C10.3815 12.0007 9.64042 11.8285 9.06434 12.0639C8.46842 12.3078 8.08311 12.9079 8.1066 13.5565C8.11341 13.7603 7.96302 13.9351 7.76002 13.9574C7.50388 13.986 7.24772 14 6.99158 14C6.72175 14 6.45264 13.9844 6.18516 13.9533C5.98069 13.9297 5.82947 13.7504 5.84159 13.5443C5.87879 12.8884 5.49873 12.2777 4.89454 12.025C4.31766 11.7829 3.56824 11.9544 3.14942 12.4176C3.01038 12.5708 2.77702 12.589 2.61661 12.4597C2.20771 12.1306 1.83448 11.7537 1.50922 11.3394C1.383 11.1795 1.40202 10.9495 1.55176 10.8119C2.03059 10.3731 2.1879 9.67763 1.94318 9.08095C1.69767 8.48353 1.11243 8.10621 0.502845 8.12172C0.302253 8.12172 0.065803 7.97511 0.0438304 7.77748C-0.0154653 7.24733 -0.0147329 6.71156 0.0468516 6.18556C0.0711131 5.98378 0.229225 5.83485 0.451179 5.84193C1.1352 5.84193 1.73267 5.47108 1.97434 4.89576C2.22745 4.29225 2.07014 3.59034 1.58292 3.14918C1.43092 3.01088 1.4119 2.77784 1.54114 2.61708C1.8725 2.20363 2.25407 1.82667 2.67362 1.49757C2.83396 1.37257 3.06425 1.39113 3.20188 1.54201C3.61829 2.00001 4.36253 2.17018 4.93473 1.93654C5.53144 1.69215 5.91608 1.09205 5.89329 0.443006C5.88645 0.239637 6.03693 0.0648323 6.23991 0.0424934C6.76435 -0.0157341 7.29182 -0.013903 7.81473 0.0466438C8.02003 0.0705696 8.17051 0.249525 8.15827 0.455457C8.12107 1.11097 8.50114 1.72169 9.10383 1.97523C9.68299 2.21693 10.4325 2.04518 10.8497 1.58302C10.9881 1.42982 11.2222 1.41212 11.3817 1.54005C11.7892 1.86647 12.1624 2.24305 12.4907 2.66005C12.6169 2.81996 12.5986 3.05031 12.4482 3.18788C11.9701 3.62636 11.8128 4.32228 12.0567 4.91884C12.2954 5.50136 12.8647 5.87806 13.5062 5.87806ZM4.66666 7.00001C4.66666 8.28663 5.71329 9.33327 7.00004 9.33327C8.28669 9.33327 9.33332 8.28663 9.33332 7.00001C9.33332 5.71327 8.28669 4.66664 7.00004 4.66664C5.71329 4.66664 4.66666 5.71327 4.66666 7.00001Z" fill="white"/>
</g>
</g>
</svg>
