<?xml version="1.0" encoding="UTF-8"?>
<svg width="165px" height="47px" viewBox="0 0 165 47" version="1.1" xmlns="http://www.w3.org/2000/svg" xmlns:xlink="http://www.w3.org/1999/xlink">
    <!-- Generator: Sketch 51 (57462) - http://www.bohemiancoding.com/sketch -->
    <title>logo/1</title>
    <desc>Created with Sketch.</desc>
    <defs></defs>
    <g id="logo/1" stroke="none" stroke-width="1" fill="none" fill-rule="evenodd">
        <g id="Group-4">
            <g id="Group-2" transform="translate(56.000000, 20.000000)" fill="#000000">
                <path d="M24.3077,11.2632 L19.9357,1.3872 C19.7817,1.0432 19.5767,0.7752 19.3037,0.5832 C19.0417,0.3922 18.7197,0.2982 18.3367,0.2952 L18.1807,0.2952 C17.8017,0.2982 17.4777,0.3922 17.2057,0.5832 C16.9337,0.7752 16.7187,1.0432 16.5697,1.3872 L12.1947,11.2632 C12.1477,11.3622 12.1097,11.4612 12.0787,11.5602 C12.0507,11.6582 12.0317,11.7562 12.0317,11.8552 C12.0367,12.0952 12.0907,12.3152 12.2047,12.5092 C12.3137,12.7002 12.4647,12.8572 12.6567,12.9692 C12.8457,13.0832 13.0607,13.1412 13.3047,13.1442 C13.5937,13.1412 13.8487,13.0672 14.0687,12.9152 C14.2887,12.7652 14.4587,12.5552 14.5797,12.2862 L15.4577,10.2232 L20.9767,10.2232 L21.8167,12.1952 C21.9447,12.4842 22.1147,12.7162 22.3347,12.8872 C22.5527,13.0542 22.8217,13.1412 23.1437,13.1442 C23.3897,13.1412 23.6147,13.0832 23.8087,12.9632 C24.0077,12.8462 24.1607,12.6882 24.2747,12.4872 C24.3927,12.2912 24.4497,12.0662 24.4517,11.8202 C24.4517,11.7302 24.4397,11.6402 24.4137,11.5462 C24.3907,11.4572 24.3507,11.3622 24.3077,11.2632 Z M16.4767,7.7872 L18.2157,3.6452 L19.9497,7.7872 L16.4767,7.7872 Z" id="Fill-258"></path>
                <path d="M4.8922,4.6539 L2.9972,4.6539 L2.9972,3.0369 L7.6792,3.0369 C7.9132,3.0369 8.1282,2.9739 8.3152,2.8609 C8.5092,2.7469 8.6632,2.5959 8.7772,2.4039 C8.8882,2.2109 8.9492,1.9999 8.9492,1.7629 C8.9492,1.5269 8.8882,1.3099 8.7772,1.1199 C8.6632,0.9309 8.5072,0.7779 8.3152,0.6659 C8.1282,0.5519 7.9112,0.4909 7.6792,0.4909 L1.7622,0.4909 C1.7172,0.4859 1.6672,0.4839 1.6202,0.4839 C1.5632,0.4839 1.5112,0.4869 1.4592,0.4909 C1.2422,0.4999 1.0452,0.5609 0.8682,0.6659 C0.6792,0.7779 0.5252,0.9299 0.4112,1.1199 C0.2982,1.3109 0.2362,1.5269 0.2362,1.7629 L0.2362,1.8139 L0.2362,1.8639 L0.2362,11.6579 C0.2362,11.9179 0.3022,12.1499 0.4232,12.3589 C0.5442,12.5659 0.7092,12.7309 0.9182,12.8519 C1.1232,12.9729 1.3582,13.0369 1.6202,13.0369 L5.1642,13.0369 C7.8282,13.0369 9.9712,11.6749 9.9662,8.8629 C9.9592,5.9559 7.5962,4.6539 4.8922,4.6539 M4.9302,10.5469 L2.9972,10.5469 L2.9972,7.1089 L4.9822,7.1089 C6.1602,7.1089 7.1732,7.5829 7.1682,8.8459 C7.1632,10.1669 6.1432,10.5469 4.9302,10.5469" id="Fill-260"></path>
                <path d="M34.9536,0.6659 C34.7646,0.5509 34.5516,0.4939 34.3146,0.4909 L26.2496,0.4909 C26.0136,0.4939 25.8026,0.5509 25.6116,0.6659 C25.4196,0.7789 25.2656,0.9299 25.1526,1.1199 C25.0386,1.3109 24.9796,1.5269 24.9746,1.7629 C24.9796,1.9999 25.0386,2.2109 25.1526,2.4039 C25.2656,2.5959 25.4196,2.7469 25.6116,2.8609 C25.8026,2.9739 26.0136,3.0329 26.2496,3.0369 L28.9016,3.0369 L28.9016,11.7649 C28.9066,12.0239 28.9686,12.2569 29.0916,12.4649 C29.2076,12.6719 29.3756,12.8369 29.5856,12.9569 C29.7896,13.0789 30.0206,13.1419 30.2836,13.1449 C30.5416,13.1419 30.7756,13.0789 30.9796,12.9569 C31.1896,12.8369 31.3576,12.6719 31.4786,12.4649 C31.5986,12.2569 31.6606,12.0239 31.6626,11.7649 L31.6626,3.0369 L34.3146,3.0369 C34.5516,3.0329 34.7646,2.9739 34.9536,2.8609 C35.1426,2.7469 35.3016,2.5959 35.4126,2.4039 C35.5266,2.2109 35.5856,1.9999 35.5896,1.7629 C35.5856,1.5269 35.5266,1.3109 35.4126,1.1199 C35.3016,0.9299 35.1426,0.7789 34.9536,0.6659" id="Fill-262"></path>
                <path d="M77.2032,10.8326 L73.3492,5.9936 L76.8812,2.6966 C77.0372,2.5516 77.1562,2.3976 77.2462,2.2296 C77.3352,2.0606 77.3802,1.8686 77.3832,1.6556 C77.3802,1.4256 77.3282,1.2136 77.2242,1.0226 C77.1202,0.8316 76.9762,0.6806 76.7802,0.5646 C76.5902,0.4466 76.3682,0.3866 76.1082,0.3836 C75.8712,0.3836 75.6562,0.4316 75.4712,0.5246 C75.2892,0.6166 75.1142,0.7516 74.9462,0.9216 L69.8552,5.9756 L69.8552,1.7626 C69.8532,1.5046 69.7912,1.2716 69.6712,1.0606 C69.5502,0.8566 69.3842,0.6916 69.1742,0.5696 C68.9682,0.4496 68.7362,0.3866 68.4762,0.3836 C68.2162,0.3866 67.9812,0.4496 67.7762,0.5696 C67.5652,0.6916 67.3992,0.8566 67.2812,1.0606 C67.1582,1.2716 67.0972,1.5046 67.0942,1.7626 L67.0942,11.7656 C67.0972,12.0236 67.1582,12.2576 67.2812,12.4646 C67.3992,12.6716 67.5652,12.8366 67.7762,12.9566 C67.9812,13.0786 68.2162,13.1416 68.4762,13.1446 C68.7362,13.1416 68.9682,13.0786 69.1742,12.9566 C69.3842,12.8366 69.5502,12.6716 69.6712,12.4646 C69.7912,12.2576 69.8532,12.0236 69.8552,11.7656 L69.8552,9.2556 L71.4352,7.7866 L75.0172,12.4826 C75.1682,12.6826 75.3292,12.8406 75.5142,12.9616 C75.6962,13.0786 75.9162,13.1416 76.1792,13.1446 C76.4532,13.1416 76.6922,13.0826 76.9032,12.9696 C77.1082,12.8516 77.2762,12.6946 77.3992,12.4896 C77.5182,12.2906 77.5772,12.0606 77.5792,11.8006 C77.5772,11.5966 77.5392,11.4186 77.4702,11.2636 C77.4042,11.1066 77.3122,10.9646 77.2032,10.8326" id="Fill-264"></path>
                <path d="M48.7671,0.6771 C48.5591,0.5571 48.3271,0.4941 48.0671,0.4911 L47.7811,0.4911 C47.5631,0.4911 47.3661,0.5271 47.1991,0.5931 C47.0261,0.6591 46.8771,0.7551 46.7401,0.8741 C46.6021,0.9951 46.4681,1.1341 46.3471,1.2971 L41.0241,8.2151 L41.0241,1.7451 C41.0221,1.4931 40.9601,1.2621 40.8391,1.0581 C40.7141,0.8531 40.5561,0.6921 40.3501,0.5691 C40.1461,0.4501 39.9171,0.3871 39.6611,0.3841 C39.4081,0.3871 39.1791,0.4501 38.9751,0.5691 C38.7691,0.6921 38.6091,0.8531 38.4881,1.0581 C38.3651,1.2621 38.3061,1.4931 38.3031,1.7451 L38.3031,11.6581 C38.3061,11.9181 38.3651,12.1501 38.4881,12.3561 C38.6091,12.5651 38.7691,12.7311 38.9781,12.8491 C39.1861,12.9731 39.4201,13.0341 39.6831,13.0371 L39.7681,13.0371 C39.9851,13.0371 40.1821,13.0011 40.3521,12.9341 C40.5201,12.8711 40.6741,12.7761 40.8111,12.6551 C40.9511,12.5351 41.0761,12.3921 41.1991,12.2301 L46.7231,5.0621 L46.7231,11.7841 C46.7251,12.0371 46.7921,12.2661 46.9101,12.4701 C47.0331,12.6771 47.1941,12.8361 47.4001,12.9611 C47.6011,13.0791 47.8331,13.1411 48.0831,13.1441 C48.3391,13.1411 48.5711,13.0791 48.7721,12.9611 C48.9801,12.8361 49.1411,12.6771 49.2661,12.4701 C49.3821,12.2661 49.4461,12.0371 49.4511,11.7841 L49.4511,1.8711 C49.4461,1.6111 49.3821,1.3781 49.2591,1.1701 C49.1411,0.9621 48.9751,0.7991 48.7671,0.6771" id="Fill-266"></path>
                <path d="M91.8684,11.2632 L87.4944,1.3872 C87.3454,1.0432 87.1274,0.7752 86.8554,0.5832 C86.5854,0.3922 86.2614,0.2982 85.8834,0.2952 L85.7244,0.2952 C85.3464,0.2982 85.0244,0.3922 84.7544,0.5832 C84.4874,0.7752 84.2794,1.0432 84.1274,1.3872 L79.7514,11.2632 C79.7114,11.3622 79.6734,11.4572 79.6494,11.5462 C79.6214,11.6402 79.6094,11.7302 79.6094,11.8202 C79.6114,12.0662 79.6704,12.2912 79.7894,12.4872 C79.9004,12.6882 80.0564,12.8462 80.2554,12.9632 C80.4494,13.0832 80.6694,13.1412 80.9174,13.1442 C81.2394,13.1412 81.5114,13.0542 81.7284,12.8872 C81.9494,12.7162 82.1194,12.4842 82.2474,12.1952 L83.0864,10.2232 L88.6084,10.2232 L89.4814,12.2862 C89.6064,12.5552 89.7774,12.7652 89.9924,12.9152 C90.2144,13.0672 90.4704,13.1412 90.7594,13.1442 C91.0024,13.1412 91.2154,13.0832 91.4074,12.9692 C91.5964,12.8572 91.7504,12.7002 91.8594,12.5092 C91.9744,12.3152 92.0294,12.0952 92.0314,11.8552 C92.0314,11.7562 92.0154,11.6582 91.9844,11.5602 C91.9534,11.4612 91.9134,11.3622 91.8684,11.2632 Z M84.1084,7.7872 L85.8474,3.6452 L87.5864,7.7872 L84.1084,7.7872 Z" id="Fill-268"></path>
                <path d="M63.3235,9.5906 C63.1315,9.4766 62.9145,9.4186 62.6825,9.4176 C62.5195,9.4186 62.3655,9.4476 62.2255,9.5016 C62.0885,9.5576 61.9635,9.6326 61.8565,9.7216 C61.5965,9.9306 61.3295,10.1096 61.0595,10.2576 C60.7875,10.4026 60.4915,10.5136 60.1845,10.5926 C59.8675,10.6696 59.5145,10.7056 59.1315,10.7056 C58.5925,10.7046 58.0995,10.6006 57.6555,10.3936 C57.2125,10.1876 56.8275,9.9036 56.5055,9.5436 C56.1835,9.1816 55.9375,8.7636 55.7625,8.2886 C55.5855,7.8136 55.4975,7.3046 55.4925,6.7646 L55.4925,6.7276 C55.4975,6.1876 55.5875,5.6796 55.7675,5.2116 C55.9405,4.7386 56.1955,4.3266 56.5175,3.9676 C56.8435,3.6096 57.2265,3.3316 57.6715,3.1296 C58.1115,2.9246 58.5995,2.8236 59.1315,2.8206 C59.6235,2.8206 60.0775,2.8986 60.4915,3.0536 C60.9105,3.2076 61.3125,3.4256 61.6935,3.7176 C61.7925,3.7846 61.9085,3.8436 62.0385,3.9006 C62.1715,3.9526 62.3295,3.9836 62.5195,3.9866 C62.7725,3.9836 63.0045,3.9226 63.2055,3.8036 C63.4115,3.6876 63.5715,3.5266 63.6945,3.3256 C63.8155,3.1236 63.8775,2.8956 63.8845,2.6426 C63.8745,2.3976 63.8255,2.1816 63.7205,1.9946 C63.6165,1.8046 63.4895,1.6586 63.3445,1.5486 C62.9995,1.2876 62.6255,1.0636 62.2115,0.8766 C61.8025,0.6856 61.3455,0.5396 60.8445,0.4346 C60.3405,0.3296 59.7725,0.2776 59.1455,0.2776 C58.3795,0.2786 57.6555,0.3906 56.9905,0.6086 C56.3205,0.8246 55.7195,1.1326 55.1805,1.5336 C54.6465,1.9306 54.1875,2.4016 53.7995,2.9406 C53.4185,3.4786 53.1245,4.0726 52.9165,4.7206 C52.7105,5.3666 52.6115,6.0466 52.6095,6.7646 L52.6095,6.7986 C52.6115,7.5226 52.7135,8.2076 52.9215,8.8546 C53.1295,9.4996 53.4275,10.0916 53.8105,10.6266 C54.1945,11.1646 54.6535,11.6276 55.1805,12.0186 C55.7155,12.4096 56.3065,12.7126 56.9525,12.9266 C57.6075,13.1416 58.2985,13.2506 59.0415,13.2526 C59.7065,13.2526 60.3095,13.1866 60.8395,13.0616 C61.3715,12.9356 61.8565,12.7566 62.2925,12.5236 C62.7275,12.2886 63.1315,12.0026 63.5035,11.6756 C63.6335,11.5676 63.7425,11.4306 63.8325,11.2636 C63.9195,11.0946 63.9665,10.9046 63.9695,10.6906 C63.9665,10.4536 63.9075,10.2416 63.7915,10.0496 C63.6765,9.8596 63.5195,9.7036 63.3235,9.5906" id="Fill-270"></path>
                <path d="M100.7281,5.1945 C99.9691,5.1945 99.3491,5.8135 99.3491,6.5775 C99.3491,7.3405 99.9691,7.9605 100.7281,7.9605 C101.4921,7.9605 102.1141,7.3405 102.1141,6.5775 C102.1141,5.8135 101.4921,5.1945 100.7281,5.1945" id="Fill-272"></path>
                <path d="M107.7756,4.7409 C107.5576,4.2119 107.2366,3.7519 106.8246,3.3649 C106.4086,2.9809 105.8996,2.6819 105.3086,2.4729 C104.7146,2.2639 104.0376,2.1589 103.2876,2.1569 L102.1166,2.1569 L102.1166,1.5479 L102.1166,1.5349 L102.1166,1.5219 L102.1166,1.5099 L102.1146,1.4989 L102.1146,1.4879 L102.1116,1.4739 L102.1116,1.4629 L102.1116,1.4509 L102.1096,1.4379 L102.1096,1.4269 L102.1096,1.4139 L102.1076,1.4029 L102.1076,1.3919 L102.1026,1.3799 L102.1026,1.3669 L102.1026,1.3569 L102.1006,1.3459 L102.0976,1.3329 L102.0956,1.3209 L102.0956,1.3099 L102.0936,1.2989 L102.0936,1.2879 L102.0886,1.2759 L102.0886,1.2659 C102.0556,1.1139 102.0056,0.9769 101.9296,0.8459 C101.8546,0.7179 101.7646,0.6089 101.6576,0.5119 L101.6416,0.4989 L101.6266,0.4839 L101.6156,0.4789 L101.6056,0.4709 L101.6006,0.4639 L101.5916,0.4569 L101.5846,0.4509 L101.5746,0.4439 L101.5676,0.4369 L101.5566,0.4299 L101.5466,0.4229 L101.5396,0.4179 L101.5306,0.4119 L101.5186,0.4049 L101.5086,0.3979 L101.4966,0.3929 L101.4896,0.3869 L101.4806,0.3809 L101.4706,0.3739 L101.4636,0.3699 L101.4516,0.3639 L101.4426,0.3579 L101.4326,0.3519 L101.4256,0.3459 L101.4166,0.3409 L101.4046,0.3349 L101.3976,0.3289 L101.3856,0.3219 L101.3736,0.3179 L101.3646,0.3139 L101.3546,0.3089 L101.3456,0.3039 L101.3336,0.2989 L101.3246,0.2929 L101.3146,0.2889 L101.3026,0.2849 L101.2916,0.2789 L101.2816,0.2749 L101.2726,0.2709 L101.2606,0.2669 L101.2486,0.2629 L101.2416,0.2579 L101.2396,0.2579 L101.2346,0.2539 L101.2226,0.2499 L101.2086,0.2449 L101.2016,0.2419 L101.1896,0.2389 L101.1776,0.2349 L101.1686,0.2309 L101.1586,0.2279 L101.1466,0.2239 L101.1346,0.2219 L101.1236,0.2179 L101.1156,0.2169 L101.1046,0.2129 L101.0926,0.2109 L101.0806,0.2079 L101.0786,0.2079 L101.0716,0.2039 L101.0596,0.2019 L101.0476,0.1999 L101.0356,0.1959 L101.0236,0.1949 L101.0116,0.1929 L101.0026,0.1899 L100.9926,0.1879 L100.9786,0.1879 L100.9696,0.1829 L100.9556,0.1809 L100.9436,0.1809 L100.9336,0.1799 L100.9216,0.1759 L100.9126,0.1749 L100.8986,0.1729 L100.8866,0.1719 L100.8776,0.1699 L100.8626,0.1699 L100.8516,0.1689 L100.8396,0.1659 L100.8276,0.1649 L100.8156,0.1649 L100.8066,0.1639 L100.7916,0.1629 L100.7806,0.1629 L100.7686,0.1629 L100.7566,0.1629 L100.7446,0.1629 L100.7426,0.1629 L100.7286,0.1629 L100.7186,0.1629 L100.7096,0.1629 L100.6946,0.1629 L100.6836,0.1629 L100.6716,0.1629 L100.6596,0.1639 L100.6496,0.1649 L100.6356,0.1649 L100.6216,0.1659 L100.6126,0.1689 L100.6006,0.1699 L100.5886,0.1699 L100.5766,0.1719 L100.5626,0.1729 L100.5526,0.1749 L100.5416,0.1759 L100.5296,0.1799 L100.5176,0.1809 L100.5056,0.1809 L100.4966,0.1829 L100.4846,0.1879 L100.4726,0.1879 L100.4606,0.1899 L100.4516,0.1929 L100.4396,0.1949 L100.4276,0.1959 L100.4186,0.1999 L100.4066,0.2019 L100.3946,0.2039 L100.3826,0.2079 L100.3706,0.2109 L100.3616,0.2129 L100.3496,0.2169 L100.3376,0.2179 L100.3286,0.2219 L100.3186,0.2239 L100.3046,0.2279 L100.2976,0.2309 L100.2856,0.2349 L100.2736,0.2389 L100.2616,0.2419 L100.2546,0.2449 L100.2406,0.2499 L100.2336,0.2539 L100.2196,0.2579 L100.2096,0.2629 L100.2006,0.2669 L100.1916,0.2709 L100.1816,0.2749 L100.1726,0.2789 L100.1576,0.2849 L100.1506,0.2889 L100.1366,0.2929 L100.1316,0.2989 L100.1196,0.3039 L100.1056,0.3089 L100.0986,0.3139 L100.0896,0.3179 L100.0776,0.3219 L100.0676,0.3289 L100.0586,0.3349 L100.0466,0.3409 L100.0376,0.3459 L100.0276,0.3519 L100.0206,0.3579 L100.0116,0.3639 L100.0016,0.3699 L99.9926,0.3739 L99.9826,0.3809 L99.9736,0.3869 L99.9636,0.3929 L99.9546,0.3979 L99.9476,0.4049 L99.9376,0.4119 L99.9266,0.4179 L99.9166,0.4229 L99.9076,0.4299 L99.8956,0.4369 L99.8886,0.4439 L99.8786,0.4509 L99.8716,0.4569 L99.8646,0.4639 L99.8556,0.4709 L99.8456,0.4789 L99.8386,0.4839 L99.8246,0.4989 L99.8216,0.4989 L99.8056,0.5119 C99.6966,0.6069 99.6116,0.7169 99.5356,0.8459 C99.4596,0.9769 99.4056,1.1139 99.3796,1.2659 L99.3776,1.2659 L99.3746,1.2759 L99.3726,1.2879 L99.3706,1.2989 L99.3706,1.3099 L99.3676,1.3209 L99.3656,1.3329 L99.3636,1.3459 L99.3636,1.3569 L99.3606,1.3569 L99.3586,1.3669 L99.3586,1.3799 L99.3556,1.3919 L99.3556,1.4029 L99.3556,1.4139 L99.3556,1.4269 L99.3556,1.4379 L99.3536,1.4509 L99.3516,1.4629 L99.3516,1.4739 L99.3516,1.4879 L99.3486,1.4989 L99.3486,1.5099 L99.3486,1.5219 L99.3486,1.5349 L99.3486,1.5479 L99.3486,2.1569 L98.1756,2.1569 C97.4256,2.1589 96.7486,2.2639 96.1576,2.4729 C95.5636,2.6819 95.0576,2.9809 94.6406,3.3649 C94.2246,3.7519 93.9056,4.2119 93.6876,4.7409 C93.4696,5.2699 93.3586,5.8619 93.3586,6.5049 L93.3586,6.5419 C93.3616,7.2699 93.4956,7.9109 93.7586,8.4619 C94.0186,9.0119 94.3806,9.4739 94.8446,9.8409 C95.3086,10.2149 95.8426,10.4939 96.4626,10.6819 C97.0726,10.8659 97.7356,10.9619 98.4456,10.9619 L99.3486,10.9619 L99.3486,12.0109 L99.3486,12.0219 L99.3486,12.0349 L99.3486,12.0479 L99.3486,12.0609 L99.3516,12.0729 L99.3516,12.0839 L99.3516,12.0949 L99.3536,12.1079 L99.3556,12.1189 L99.3556,12.1319 L99.3556,12.1429 L99.3556,12.1549 L99.3556,12.1669 L99.3586,12.1789 L99.3586,12.1899 L99.3606,12.2009 L99.3636,12.2009 L99.3636,12.2129 L99.3656,12.2249 L99.3676,12.2369 L99.3706,12.2489 L99.3706,12.2589 L99.3726,12.2719 L99.3746,12.2819 L99.3776,12.2939 L99.3796,12.2939 C99.4056,12.4429 99.4596,12.5819 99.5356,12.7129 C99.6116,12.8409 99.6966,12.9509 99.8056,13.0459 L99.8216,13.0609 L99.8246,13.0609 L99.8386,13.0749 L99.8456,13.0809 L99.8556,13.0869 L99.8646,13.0939 L99.8716,13.1009 L99.8786,13.1089 L99.8886,13.1149 L99.8956,13.1229 L99.9076,13.1279 L99.9166,13.1339 L99.9266,13.1409 L99.9376,13.1469 L99.9476,13.1539 L99.9546,13.1599 L99.9636,13.1659 L99.9736,13.1709 L99.9826,13.1779 L99.9926,13.1829 L100.0016,13.1879 L100.0116,13.1939 L100.0206,13.2009 L100.0276,13.2059 L100.0376,13.2129 L100.0466,13.2179 L100.0586,13.2239 L100.0676,13.2279 L100.0776,13.2349 L100.0896,13.2399 L100.0986,13.2459 L100.1056,13.2509 L100.1196,13.2549 L100.1316,13.2599 L100.1366,13.2649 L100.1506,13.2689 L100.1576,13.2739 L100.1726,13.2779 L100.1816,13.2829 L100.1916,13.2869 L100.2006,13.2909 L100.2096,13.2949 L100.2196,13.2999 L100.2336,13.3039 L100.2406,13.3079 L100.2546,13.3119 L100.2616,13.3159 L100.2736,13.3189 L100.2856,13.3229 L100.2976,13.3259 L100.3046,13.3299 L100.3186,13.3329 L100.3286,13.3369 L100.3376,13.3389 L100.3496,13.3429 L100.3616,13.3469 L100.3706,13.3489 L100.3826,13.3519 L100.3946,13.3549 L100.4066,13.3559 L100.4186,13.3599 L100.4276,13.3619 L100.4396,13.3639 L100.4516,13.3669 L100.4606,13.3689 L100.4726,13.3709 L100.4846,13.3729 L100.4966,13.3739 L100.5056,13.3779 L100.5176,13.3789 L100.5296,13.3809 L100.5416,13.3819 L100.5526,13.3829 L100.5626,13.3849 L100.5766,13.3869 L100.5886,13.3879 L100.6006,13.3889 L100.6126,13.3889 L100.6216,13.3899 L100.6356,13.3929 L100.6496,13.3929 L100.6596,13.3929 L100.6716,13.3929 L100.6836,13.3929 L100.6946,13.3939 L100.7096,13.3939 L100.7186,13.3939 L100.7286,13.3939 L100.7426,13.3939 L100.7446,13.3939 L100.7566,13.3939 L100.7686,13.3939 L100.7806,13.3929 L100.7916,13.3929 L100.8066,13.3929 L100.8156,13.3929 L100.8276,13.3929 L100.8396,13.3899 L100.8516,13.3889 L100.8626,13.3889 L100.8776,13.3879 L100.8866,13.3869 L100.8986,13.3849 L100.9126,13.3829 L100.9216,13.3819 L100.9336,13.3809 L100.9436,13.3789 L100.9556,13.3779 L100.9696,13.3739 L100.9786,13.3729 L100.9926,13.3709 L101.0026,13.3689 L101.0116,13.3669 L101.0236,13.3639 L101.0356,13.3619 L101.0476,13.3599 L101.0596,13.3559 L101.0716,13.3549 L101.0786,13.3519 L101.0806,13.3519 L101.0926,13.3489 L101.1046,13.3469 L101.1156,13.3429 L101.1236,13.3389 L101.1346,13.3369 L101.1466,13.3329 L101.1586,13.3299 L101.1686,13.3259 L101.1776,13.3229 L101.1896,13.3189 L101.2016,13.3159 L101.2086,13.3119 L101.2226,13.3079 L101.2346,13.3039 L101.2396,13.2999 L101.2416,13.2999 L101.2486,13.2949 L101.2606,13.2909 L101.2726,13.2869 L101.2816,13.2829 L101.2916,13.2779 L101.3026,13.2739 L101.3146,13.2689 L101.3246,13.2649 L101.3336,13.2599 L101.3456,13.2549 L101.3546,13.2509 L101.3646,13.2459 L101.3736,13.2399 L101.3856,13.2349 L101.3976,13.2279 L101.4046,13.2239 L101.4166,13.2179 L101.4256,13.2129 L101.4326,13.2059 L101.4426,13.2009 L101.4516,13.1939 L101.4636,13.1879 L101.4706,13.1829 L101.4806,13.1779 L101.4896,13.1709 L101.4966,13.1659 L101.5086,13.1599 L101.5186,13.1539 L101.5306,13.1469 L101.5396,13.1409 L101.5466,13.1339 L101.5566,13.1279 L101.5676,13.1229 L101.5746,13.1149 L101.5846,13.1089 L101.5916,13.1009 L101.6006,13.0939 L101.6056,13.0869 L101.6156,13.0809 L101.6266,13.0749 L101.6416,13.0609 L101.6576,13.0459 C101.7646,12.9509 101.8546,12.8389 101.9296,12.7129 C102.0056,12.5829 102.0556,12.4429 102.0886,12.2939 L102.0886,12.2819 L102.0936,12.2719 L102.0936,12.2589 L102.0956,12.2489 L102.0956,12.2369 L102.0976,12.2249 L102.1006,12.2129 L102.1026,12.2009 L102.1026,12.1899 L102.1026,12.1789 L102.1076,12.1669 L102.1076,12.1549 L102.1096,12.1429 L102.1096,12.1319 L102.1096,12.1189 L102.1116,12.1079 L102.1116,12.0949 L102.1116,12.0839 L102.1146,12.0729 L102.1146,12.0609 L102.1166,12.0479 L102.1166,12.0349 L102.1166,12.0219 L102.1166,12.0109 L102.1166,10.9619 L103.0206,10.9619 C103.7256,10.9619 104.3906,10.8659 105.0026,10.6819 C105.6186,10.4939 106.1556,10.2149 106.6186,9.8409 C107.0826,9.4739 107.4446,9.0119 107.7066,8.4619 C107.9676,7.9109 108.1026,7.2699 108.1046,6.5419 L108.1046,6.5049 C108.1046,5.8619 107.9906,5.2699 107.7756,4.7409 Z M105.3036,6.5959 C105.3036,6.9559 105.2116,7.2819 105.0386,7.5689 C104.8636,7.8529 104.6146,8.0809 104.2906,8.2459 C103.9646,8.4139 103.5716,8.4989 103.1056,8.4999 L102.1166,8.4999 L99.3486,8.4999 L98.3556,8.4999 C97.8916,8.4989 97.5036,8.4139 97.1746,8.2459 C96.8436,8.0809 96.5976,7.8529 96.4246,7.5689 C96.2496,7.2819 96.1646,6.9549 96.1646,6.5959 L96.1646,6.5589 C96.1666,6.1459 96.2546,5.7969 96.4386,5.5129 C96.6186,5.2319 96.8746,5.0179 97.2126,4.8729 C97.5486,4.7259 97.9456,4.6539 98.4096,4.6539 L99.3486,4.6539 L102.1166,4.6539 L103.0536,4.6539 C103.5196,4.6539 103.9126,4.7259 104.2506,4.8729 C104.5886,5.0179 104.8446,5.2319 105.0266,5.5129 C105.2086,5.7969 105.3016,6.1459 105.3036,6.5589 L105.3036,6.5959 Z" id="Fill-274"></path>
            </g>
            <g id="Group-3" fill="#BCD331">
                <path d="M32.6097,13.7904 L26.1557,13.7904 L26.1557,10.5644 C26.1557,9.6864 26.5087,8.8924 27.0717,8.3094 C27.6537,7.7164 28.4607,7.3454 29.3597,7.3384 L29.3827,7.3384 L32.6097,7.3384 L32.6097,0.8854 L29.3827,0.8854 C23.4517,0.8854 19.7047,4.7584 19.7047,10.5644 L19.7047,13.7904 L13.2507,13.7904 C6.1207,13.7904 0.3457,19.5684 0.3457,26.6954 C0.3457,33.8224 6.1207,39.5994 13.2507,39.5994 L19.7047,39.5994 L19.7047,42.8254 C19.7047,44.6074 21.1477,46.0514 22.9287,46.0514 C24.7127,46.0514 26.1557,44.6074 26.1557,42.8254 L26.1557,39.5994 L32.6097,39.5994 C39.7357,39.5994 45.5147,33.8224 45.5147,26.6954 C45.5147,19.5684 39.7357,13.7904 32.6097,13.7904 M32.6097,33.1474 L13.2507,33.1474 C9.6877,33.1474 6.7977,30.2594 6.7977,26.6954 C6.7977,23.1314 9.6877,20.2414 13.2507,20.2414 L32.6097,20.2414 C36.1727,20.2414 39.0587,23.1314 39.0587,26.6954 C39.0587,30.2594 36.1727,33.1474 32.6097,33.1474" id="Fill-276"></path>
                <path d="M22.9292,22.394 C20.5512,22.394 18.6282,24.319 18.6282,26.696 C18.6282,29.071 20.5512,30.997 22.9292,30.997 C25.3042,30.997 27.2322,29.071 27.2322,26.696 C27.2322,24.319 25.3042,22.394 22.9292,22.394" id="Fill-278"></path>
            </g>
            <g id="Group" transform="translate(56.000000, 39.000000)" fill="#000000">
                <polygon id="Fill-281" points="0.2363 0.6781 4.7593 0.6781 4.7593 5.8991 3.9813 5.8991 3.9813 1.3651 1.0143 1.3651 1.0143 5.8991 0.2363 5.8991"></polygon>
                <path d="M6.4985,0.6781 L7.2765,0.6781 L7.2765,1.7281 C7.7005,1.1001 8.3155,0.5671 9.2785,0.5671 C10.5275,0.5671 11.7665,1.5561 11.7665,3.2931 C11.7665,4.9981 10.5365,6.0061 9.2785,6.0061 C8.3055,6.0061 7.6815,5.4821 7.2765,4.8971 L7.2765,7.5121 L6.4985,7.5121 L6.4985,0.6781 Z M10.9695,3.2831 C10.9695,2.0501 10.1225,1.2631 9.1335,1.2631 C8.1665,1.2631 7.2465,2.0801 7.2465,3.2931 C7.2465,4.5031 8.1665,5.3101 9.1335,5.3101 C10.1445,5.3101 10.9695,4.5661 10.9695,3.2831 Z" id="Fill-282"></path>
                <path d="M12.8103,4.3622 C12.8103,3.2412 13.7213,2.6572 15.0413,2.6572 C15.7083,2.6572 16.1743,2.7472 16.6383,2.8792 L16.6383,2.7172 C16.6383,1.7902 16.0723,1.3052 15.0933,1.3052 C14.4783,1.3052 13.9953,1.4542 13.5083,1.6782 L13.2763,1.0432 C13.8513,0.7782 14.4073,0.5962 15.1733,0.5962 C15.9113,0.5962 16.4863,0.7972 16.8583,1.1742 C17.2223,1.5352 17.4043,2.0422 17.4043,2.7062 L17.4043,5.8992 L16.6383,5.8992 L16.6383,5.1192 C16.2763,5.5842 15.6803,6.0062 14.7593,6.0062 C13.7803,6.0062 12.8103,5.4532 12.8103,4.3622 M16.6473,3.9792 L16.6473,3.4952 C16.2643,3.3832 15.7603,3.2732 15.1243,3.2732 C14.1543,3.2732 13.5983,3.6972 13.5983,4.3432 C13.5983,4.9982 14.2033,5.3842 14.9113,5.3842 C15.8713,5.3842 16.6473,4.8072 16.6473,3.9792" id="Fill-284"></path>
                <path d="M19.0535,0.6781 L21.5735,0.6781 C22.6165,0.6781 23.2815,1.1941 23.2815,1.9821 C23.2815,2.6671 22.8485,2.9991 22.4105,3.1811 C23.0375,3.3521 23.5645,3.7351 23.5645,4.4731 C23.5645,5.3531 22.8175,5.8991 21.6675,5.8991 L19.0535,5.8991 L19.0535,0.6781 Z M21.4355,2.9171 C22.0605,2.9171 22.4935,2.6261 22.4935,2.0801 C22.4935,1.6471 22.1335,1.3431 21.4575,1.3431 L19.8295,1.3431 L19.8295,2.9171 L21.4355,2.9171 Z M21.5655,5.2301 C22.3135,5.2301 22.7675,4.8971 22.7675,4.3511 C22.7675,3.8471 22.3135,3.5441 21.4665,3.5441 L19.8295,3.5441 L19.8295,5.2301 L21.5655,5.2301 Z" id="Fill-286"></path>
                <path d="M24.646,3.2934 C24.646,1.8184 25.798,0.5674 27.374,0.5674 C28.94,0.5674 30.09,1.8004 30.09,3.2934 C30.09,4.7664 28.926,6.0184 27.352,6.0184 C25.789,6.0184 24.646,4.7854 24.646,3.2934 M29.292,3.2934 C29.292,2.1724 28.455,1.2544 27.352,1.2544 C26.224,1.2544 25.446,2.1724 25.446,3.2934 C25.446,4.4134 26.274,5.3224 27.374,5.3224 C28.505,5.3224 29.292,4.4134 29.292,3.2934" id="Fill-288"></path>
                <path d="M31.4949,0.6781 L34.0219,0.6781 C35.0579,0.6781 35.7249,1.1941 35.7249,1.9821 C35.7249,2.6671 35.2919,2.9991 34.8569,3.1811 C35.4839,3.3521 36.0059,3.7351 36.0059,4.4731 C36.0059,5.3531 35.2609,5.8991 34.1089,5.8991 L31.4949,5.8991 L31.4949,0.6781 Z M33.8799,2.9171 C34.5039,2.9171 34.9369,2.6261 34.9369,2.0801 C34.9369,1.6471 34.5749,1.3431 33.8959,1.3431 L32.2729,1.3431 L32.2729,2.9171 L33.8799,2.9171 Z M34.0099,5.2301 C34.7549,5.2301 35.2089,4.8971 35.2089,4.3511 C35.2089,3.8471 34.7549,3.5441 33.9079,3.5441 L32.2729,3.5441 L32.2729,5.2301 L34.0099,5.2301 Z" id="Fill-290"></path>
                <path d="M37.0212,4.3622 C37.0212,3.2412 37.9292,2.6572 39.2502,2.6572 C39.9172,2.6572 40.3832,2.7472 40.8462,2.8792 L40.8462,2.7172 C40.8462,1.7902 40.2812,1.3052 39.3022,1.3052 C38.6862,1.3052 38.2022,1.4542 37.7172,1.6782 L37.4852,1.0432 C38.0622,0.7782 38.6152,0.5962 39.3822,0.5962 C40.1202,0.5962 40.6952,0.7972 41.0692,1.1742 C41.4312,1.5352 41.6152,2.0422 41.6152,2.7062 L41.6152,5.8992 L40.8462,5.8992 L40.8462,5.1192 C40.4822,5.5842 39.8882,6.0062 38.9682,6.0062 C37.9892,6.0062 37.0212,5.4532 37.0212,4.3622 M40.8582,3.9792 L40.8582,3.4952 C40.4732,3.3832 39.9662,3.2732 39.3352,3.2732 C38.3652,3.2732 37.8092,3.6972 37.8092,4.3432 C37.8092,4.9982 38.4142,5.3842 39.1222,5.3842 C40.0782,5.3842 40.8582,4.8072 40.8582,3.9792" id="Fill-292"></path>
                <path d="M44.3928,3.8778 C43.6168,3.6968 42.9998,3.1518 42.9998,2.3038 C42.9998,1.3438 43.7258,0.6778 44.9678,0.6778 L47.4208,0.6778 L47.4208,5.8988 L46.6428,5.8988 L46.6428,3.9988 L45.2018,3.9988 C44.7168,4.6358 44.2418,5.2718 43.7568,5.8988 L42.7988,5.8988 L44.3928,3.8778 Z M46.6428,3.3438 L46.6428,1.3658 L45.0098,1.3658 C44.2318,1.3658 43.7778,1.7388 43.7778,2.3338 C43.7778,2.9698 44.3028,3.3438 45.0268,3.3438 L46.6428,3.3438 Z" id="Fill-294"></path>
                <polygon id="Fill-297" points="52.1903 0.6781 56.7113 0.6781 56.7113 5.8991 55.9373 5.8991 55.9373 1.3651 52.9663 1.3651 52.9663 5.8991 52.1903 5.8991"></polygon>
                <path d="M58.1283,3.2934 C58.1283,1.8184 59.2783,0.5674 60.8533,0.5674 C62.4203,0.5674 63.5693,1.8004 63.5693,3.2934 C63.5693,4.7664 62.4083,6.0184 60.8343,6.0184 C59.2713,6.0184 58.1283,4.7854 58.1283,3.2934 M62.7723,3.2934 C62.7723,2.1724 61.9353,1.2544 60.8343,1.2544 C59.7043,1.2544 58.9253,2.1724 58.9253,3.2934 C58.9253,4.4134 59.7563,5.3224 60.8533,5.3224 C61.9873,5.3224 62.7723,4.4134 62.7723,3.2934" id="Fill-298"></path>
                <path d="M64.1089,5.2114 L64.6739,5.2114 C65.0979,4.4334 65.3719,3.3434 65.3719,1.5854 L65.3719,0.6784 L69.0839,0.6784 L69.0839,5.2114 L69.8719,5.2114 L69.7509,7.1994 L69.1049,7.1994 L69.1049,5.8984 L64.8869,5.8984 L64.7449,7.1994 L64.1089,7.1994 L64.1089,5.2114 Z M68.3109,5.2114 L68.3109,1.3654 L66.1179,1.3654 L66.1179,2.0914 C66.1179,3.3824 65.8669,4.5344 65.4999,5.2114 L68.3109,5.2114 Z" id="Fill-300"></path>
                <path d="M70.4799,5.2114 L71.0479,5.2114 C71.4689,4.4334 71.7429,3.3434 71.7429,1.5854 L71.7429,0.6784 L75.4579,0.6784 L75.4579,5.2114 L76.2449,5.2114 L76.1249,7.1994 L75.4759,7.1994 L75.4759,5.8984 L71.2579,5.8984 L71.1159,7.1994 L70.4799,7.1994 L70.4799,5.2114 Z M74.6819,5.2114 L74.6819,1.3654 L72.4909,1.3654 L72.4909,2.0914 C72.4909,3.3824 72.2379,4.5344 71.8759,5.2114 L74.6819,5.2114 Z" id="Fill-302"></path>
                <path d="M76.9951,3.2934 C76.9951,1.7774 78.0551,0.5674 79.5001,0.5674 C81.0451,0.5674 81.9301,1.8004 81.9301,3.3344 C81.9301,3.4024 81.9301,3.4834 81.9231,3.6054 L77.7831,3.6054 C77.8941,4.7044 78.7031,5.3404 79.6191,5.3404 C80.3351,5.3404 80.8421,5.0504 81.2651,4.6054 L81.7501,5.0384 C81.2251,5.6244 80.5891,6.0184 79.6001,6.0184 C78.1661,6.0184 76.9951,4.9194 76.9951,3.2934 Z M81.1441,2.9794 C81.0551,2.0304 80.5081,1.2244 79.4811,1.2244 C78.5801,1.2244 77.8941,1.9704 77.7831,2.9794 L81.1441,2.9794 Z" id="Fill-304"></path>
                <path d="M83.2974,0.6781 L84.0754,0.6781 L84.0754,1.7281 C84.4994,1.1001 85.1144,0.5671 86.0744,0.5671 C87.3264,0.5671 88.5664,1.5561 88.5664,3.2931 C88.5664,4.9981 87.3354,6.0061 86.0744,6.0061 C85.1044,6.0061 84.4804,5.4821 84.0754,4.8971 L84.0754,7.5121 L83.2974,7.5121 L83.2974,0.6781 Z M87.7684,3.2831 C87.7684,2.0501 86.9214,1.2631 85.9324,1.2631 C84.9634,1.2631 84.0454,2.0801 84.0454,3.2931 C84.0454,4.5031 84.9634,5.3101 85.9324,5.3101 C86.9434,5.3101 87.7684,4.5661 87.7684,3.2831 Z" id="Fill-306"></path>
                <polygon id="Fill-309" points="91.1753 2.909 89.1453 0.678 90.0843 0.678 92.7393 3.705 92.7393 0.678 93.5153 0.678 93.5153 3.705 96.1693 0.678 97.1113 0.678 95.0813 2.909 97.2223 5.899 96.3113 5.899 94.5753 3.463 93.5153 4.625 93.5153 5.899 92.7393 5.899 92.7393 4.625 91.6793 3.463 89.9423 5.899 89.0343 5.899"></polygon>
                <polygon id="Fill-310" points="98.2961 0.6781 99.0741 0.6781 99.0741 3.6851 101.9301 0.6781 102.8901 0.6781 100.7091 2.9401 102.9521 5.8991 102.0291 5.8991 100.1741 3.5041 99.0741 4.6351 99.0741 5.8991 98.2961 5.8991"></polygon>
                <path d="M103.4275,4.3622 C103.4275,3.2412 104.3335,2.6572 105.6585,2.6572 C106.3235,2.6572 106.7865,2.7472 107.2525,2.8792 L107.2525,2.7172 C107.2525,1.7902 106.6875,1.3052 105.7105,1.3052 C105.0925,1.3052 104.6075,1.4542 104.1225,1.6782 L103.8915,1.0432 C104.4655,0.7782 105.0215,0.5962 105.7885,0.5962 C106.5265,0.5962 107.1015,0.7972 107.4755,1.1742 C107.8375,1.5352 108.0215,2.0422 108.0215,2.7062 L108.0215,5.8992 L107.2525,5.8992 L107.2525,5.1192 C106.8885,5.5842 106.2925,6.0062 105.3745,6.0062 C104.3955,6.0062 103.4275,5.4532 103.4275,4.3622 M107.2625,3.9792 L107.2625,3.4952 C106.8795,3.3832 106.3755,3.2732 105.7385,3.2732 C104.7715,3.2732 104.2155,3.6972 104.2155,4.3432 C104.2155,4.9982 104.8205,5.3842 105.5285,5.3842 C106.4845,5.3842 107.2625,4.8072 107.2625,3.9792" id="Fill-311"></path>
            </g>
        </g>
    </g>
</svg>