<svg width="14" height="14" viewBox="0 0 14 14" fill="none" xmlns="http://www.w3.org/2000/svg">
<path fill-rule="evenodd" clip-rule="evenodd" d="M10.5741 0.906128L13.8991 9.72668C14.1809 10.4712 13.8519 11.3324 13.1688 11.6427L8.23502 13.8896C8.06818 13.9634 7.8932 14 7.72053 14C7.19553 13.9929 6.69971 13.6531 6.49323 13.0939L3.16825 4.27332C3.0936 4.08228 3.06034 3.88281 3.06678 3.68469C3.08018 3.11658 3.38932 2.58679 3.89216 2.3573L8.83234 0.109619C9.00733 0.029541 9.18702 0 9.36201 0C9.8765 0.0147705 10.3665 0.354004 10.5741 0.906128ZM1.72626 12.8656L0.828529 12.4532C0.151283 12.1436 -0.177727 11.2817 0.0970227 10.5302L1.72626 6.21191V12.8656ZM6.08713 5.62793C5.34891 5.62793 4.74616 5.0249 4.74616 4.28784C4.74616 3.55078 5.35007 2.94788 6.08713 2.94788C6.8242 2.94788 7.43046 3.54968 7.43046 4.28784C7.43046 5.0238 6.82536 5.62793 6.08713 5.62793ZM4.41483 14C3.67692 14 3.07435 13.3369 3.07435 12.5264L3.07432 7.85474L5.38721 14H4.41483Z" fill="white"/>
</svg>
