<svg width="7" height="12" viewBox="0 0 7 12" fill="none" xmlns="http://www.w3.org/2000/svg">
<path d="M6.24167 0.0024968L4.68599 0C2.93825 0 1.80878 1.15914 1.80878 2.95322V4.31485H0.244615C0.109453 4.31485 0 4.42446 0 4.55966V6.53251C0 6.66771 0.109577 6.77719 0.244615 6.77719H1.80878V11.7553C1.80878 11.8905 1.91823 12 2.05339 12H4.09417C4.22934 12 4.33879 11.8904 4.33879 11.7553V6.77719H6.16766C6.30282 6.77719 6.41227 6.66771 6.41227 6.53251L6.41302 4.55966C6.41302 4.49474 6.38719 4.43257 6.34138 4.38663C6.29558 4.34069 6.23318 4.31485 6.16828 4.31485H4.33879V3.16058C4.33879 2.60579 4.47096 2.32415 5.19344 2.32415L6.24142 2.32377C6.37645 2.32377 6.48591 2.21416 6.48591 2.07909V0.247183C6.48591 0.112231 6.37658 0.00274648 6.24167 0.0024968Z" fill="#1C236E"/>
</svg>
