<svg width="28" height="28" viewBox="0 0 28 28" fill="none" xmlns="http://www.w3.org/2000/svg">
<g id="flag/russia">
<g id="russia">
<path id="Oval" d="M12 25C19.1797 25 25 19.1797 25 12C25 4.8203 19.1797 -1 12 -1C4.8203 -1 -1 4.8203 -1 12C-1 19.1797 4.8203 25 12 25Z" transform="translate(2 2)" fill="#F0F0F0" stroke="white" stroke-width="2"/>
<path id="Shape" d="M23.2536 8.34778C23.736 7.0478 24 5.64173 24 4.17389C24 2.70605 23.736 1.29998 23.2536 0H0.746391C0.264047 1.29998 0 2.70605 0 4.17389C0 5.64173 0.264047 7.0478 0.746391 8.34778L12 9.39127L23.2536 8.34778Z" transform="translate(2 9.82605)" fill="#0052B4"/>
<path id="Shape_2" d="M11.2536 7.82611C16.4132 7.82611 20.8117 4.56961 22.5072 0H0C1.69552 4.56961 6.09403 7.82611 11.2536 7.82611Z" transform="translate(2.74639 18.174)" fill="#D80027"/>
</g>
</g>
</svg>
