<svg width="20" height="14" viewBox="0 0 20 14" fill="none" xmlns="http://www.w3.org/2000/svg">
<path d="M19.1921 0H0.807891C0.361719 0 0 0.36168 0 0.807891C0 1.2541 0.361719 1.61578 0.807891 1.61578H19.1921C19.6383 1.61578 20 1.2541 20 0.807891C20 0.361719 19.6383 0 19.1921 0Z" transform="translate(0 6.14514)" fill="#000000"/>
<path d="M19.1921 0H0.807891C0.361719 0 0 0.361719 0 0.807891C0 1.25406 0.361719 1.61578 0.807891 1.61578H19.1921C19.6383 1.61578 20 1.25406 20 0.807891C20 0.361719 19.6383 0 19.1921 0Z" transform="translate(0 0.0170898)" fill="#000000"/>
<path d="M19.1921 0H0.807891C0.361719 0 0 0.36168 0 0.807891C0 1.2541 0.361719 1.61578 0.807891 1.61578H19.1921C19.6383 1.61578 20 1.2541 20 0.807891C20 0.36168 19.6383 0 19.1921 0Z" transform="translate(0 12.2733)" fill="#000000"/>
</svg>
