<?xml version="1.0" encoding="UTF-8"?>
<svg width="320px" height="568px" viewBox="0 0 320 568" version="1.1" xmlns="http://www.w3.org/2000/svg" xmlns:xlink="http://www.w3.org/1999/xlink">
    <!-- Generator: Sketch 51 (57462) - http://www.bohemiancoding.com/sketch -->
    <title>pattern</title>
    <desc>Created with Sketch.</desc>
    <defs>
        <filter x="-12.6%" y="-8.1%" width="125.2%" height="122.6%" filterUnits="objectBoundingBox" id="filter-1">
            <feOffset dx="0" dy="20" in="SourceAlpha" result="shadowOffsetOuter1"></feOffset>
            <feGaussianBlur stdDeviation="20" in="shadowOffsetOuter1" result="shadowBlurOuter1"></feGaussianBlur>
            <feColorMatrix values="0 0 0 0 0   0 0 0 0 0   0 0 0 0 0  0 0 0 0.1 0" type="matrix" in="shadowBlurOuter1" result="shadowMatrixOuter1"></feColorMatrix>
            <feMerge>
                <feMergeNode in="shadowMatrixOuter1"></feMergeNode>
                <feMergeNode in="SourceGraphic"></feMergeNode>
            </feMerge>
        </filter>
        <polygon id="path-2" points="0.7156 0.0189 71.9506 0.0189 71.9506 46 0.7156 46"></polygon>
        <polygon id="path-4" points="0.568 0.1154 71.787 0.1154 71.787 55 0.568 55"></polygon>
        <polygon id="path-6" points="0.568 0.1154 71.787 0.1154 71.787 55 0.568 55"></polygon>
        <polygon id="path-8" points="0.4615 0.11 142.9275 0.11 142.9275 52.8265 0.4615 52.8265"></polygon>
    </defs>
    <g id="Blog" stroke="none" stroke-width="1" fill="none" fill-rule="evenodd">
        <g id="pattern">
            <g filter="url(#filter-1)" transform="translate(-114.000000, -26.000000)">
                <g id="Group-661">
                    <g id="Group-634" transform="translate(73.000000, 533.000000)">
                        <mask id="mask-3" fill="white">
                            <use xlink:href="#path-2"></use>
                        </mask>
                        <g id="Clip-633"></g>
                        <path d="M71.9506,62.3479 L71.9506,26.7309 L54.1516,26.7309 L54.1436,26.7309 C49.3006,26.7309 44.9116,24.7989 41.7006,21.6629 C38.4206,18.4599 36.3726,14.0009 36.3356,9.0639 C36.3336,9.0049 36.3336,8.9579 36.3336,8.9229 L36.3336,0.0189 L0.7156,0.0189 L0.7156,8.9229 C0.7156,41.6559 22.0966,62.3479 54.1436,62.3479 L71.9506,62.3479 Z" id="Fill-632" fill="#FFFFFF" mask="url(#mask-3)"></path>
                    </g>
                    <path d="M124.016,497.072 C124.006,497.316 124,497.561 124,497.808 C124,498.056 124.006,498.301 124.016,498.547 L124.016,515.616 L141.808,515.616 C151.644,515.616 159.616,507.644 159.616,497.808 C159.616,487.974 151.644,480 141.808,480 L124.016,480 L124.016,497.072 Z" id="Fill-635" fill="#80B439"></path>
                    <g id="Group-647" transform="translate(250.000000, 564.000000)">
                        <mask id="mask-5" fill="white">
                            <use xlink:href="#path-4"></use>
                        </mask>
                        <g id="Clip-646"></g>
                        <path d="M71.787,35.7314 C52.123,35.7404 36.184,51.6824 36.184,71.3484 C36.184,91.0144 52.123,106.9564 71.787,106.9654 L71.787,142.5814 C32.451,142.5744 0.568,110.6854 0.568,71.3484 C0.568,32.0114 32.451,0.1224 71.787,0.1154 L71.787,35.7314 Z" id="Fill-645" fill="#80B439" mask="url(#mask-5)"></path>
                    </g>
                    <path d="M133.218,159.617 C113.555,159.626 97.616,175.568 97.616,195.234 C97.616,214.9 113.555,230.842 133.218,230.85 L133.218,266.467 C93.883,266.46 62,234.571 62,195.234 C62,155.896 93.883,124.009 133.218,124 L133.218,159.617 Z" id="Fill-650" fill="#519032"></path>
                    <path d="M74,421.85 C93.664,421.841 109.604,405.899 109.604,386.233 C109.604,366.567 93.665,350.623 74,350.616 L74,315 C113.335,315.007 145.221,346.896 145.221,386.233 C145.22,425.569 113.335,457.459 74,457.467 L74,421.85 Z" id="Fill-654" fill="#FFFFFF"></path>
                    <path d="M106.85,72.0081 C106.842,52.3441 90.901,36.4051 71.234,36.4051 C51.568,36.4051 35.624,52.3431 35.618,72.0071 L0,72.0071 C0.007,32.6731 31.897,0.7881 71.234,0.7881 C110.569,0.7891 142.459,32.6731 142.467,72.0081 L106.85,72.0081 Z" id="Fill-659" fill="#519032"></path>
                </g>
                <g id="Group-661-Copy" transform="translate(425.000000, 311.500000) scale(-1, 1) translate(-425.000000, -311.500000) translate(295.000000, 17.000000)">
                    <path d="M134.016,219.072 C134.006,219.316 134,219.561 134,219.808 C134,220.056 134.006,220.301 134.016,220.547 L134.016,237.616 L151.808,237.616 C161.644,237.616 169.616,229.644 169.616,219.808 C169.616,209.974 161.644,202 151.808,202 L134.016,202 L134.016,219.072 Z" id="Fill-635" fill="#FFFFFF"></path>
                    <g id="Group-647" transform="translate(164.000000, 534.000000)">
                        <mask id="mask-7" fill="white">
                            <use xlink:href="#path-6"></use>
                        </mask>
                        <g id="Clip-646"></g>
                    </g>
                    <path d="M140.218,445.617 C120.555,445.626 104.616,461.568 104.616,481.234 C104.616,500.9 120.555,516.842 140.218,516.85 L140.218,552.467 C100.883,552.46 69,520.571 69,481.234 C69,441.896 100.883,410.009 140.218,410 L140.218,445.617 Z" id="Fill-650" fill="#80B439"></path>
                    <path d="M91,309 L91,344.617 L108.798,344.617 L108.809,344.617 C113.65,344.617 118.04,346.549 121.251,349.686 C124.531,352.889 126.577,357.347 126.616,362.285 C126.618,362.344 126.618,362.391 126.618,362.426 L126.618,371.331 L162.235,371.331 L162.235,362.426 C162.235,329.692 140.854,309 108.809,309 L91,309 Z" id="Fill-652" fill="#FFFFFF"></path>
                    <g id="Group-658" transform="translate(117.000000, 0.000000)">
                        <mask id="mask-9" fill="white">
                            <use xlink:href="#path-8"></use>
                        </mask>
                        <g id="Clip-657"></g>
                        <path d="M42.616,-35 C42.623,-15.336 58.566,0.601 78.231,0.601 C97.898,0.601 113.84,-15.336 113.848,-35 L149.466,-35 C149.457,4.335 117.567,36.219 78.231,36.219 C38.896,36.219 7.007,4.335 7,-35 L42.616,-35 Z" id="Fill-656" fill="#519032" mask="url(#mask-9)"></path>
                    </g>
                    <path d="M117.85,146.3704 C117.842,126.7064 101.901,110.7674 82.234,110.7674 C62.568,110.7674 46.624,126.7054 46.618,146.3694 L11,146.3694 C11.007,107.0354 42.897,75.1504 82.234,75.1504 C121.569,75.1514 153.459,107.0354 153.467,146.3704 L117.85,146.3704 Z" id="Fill-659" fill="#80B439"></path>
                </g>
            </g>
        </g>
    </g>
</svg>