<svg width="14" height="14" viewBox="0 0 14 14" fill="none" xmlns="http://www.w3.org/2000/svg">
<g id="icon/menu/portfolio">
<g id="portfolio">
<path id="Shape" d="M1.3265 1.02286V0.703714C1.3265 0.315143 1.02927 0 0.663385 0C0.296962 0 0 0.315143 0 0.703714V1.02286C0 1.41114 0.296962 1.72657 0.663385 1.72657C1.02927 1.72657 1.3265 1.41143 1.3265 1.02286Z" transform="translate(6.37 7.34485)" fill="white"/>
<path id="Shape_2" d="M7.61008 0.194571C7.46335 0.705143 7.02046 1.08029 6.49223 1.08029C5.96373 1.08029 5.52085 0.705429 5.37385 0.194571H0.805269C0.516923 0.194571 0.244462 0.123429 0 0V3.21914C0 3.84771 0.484615 4.362 1.07692 4.362H11.907C12.4993 4.362 12.9839 3.84771 12.9839 3.21914V0.000285714C12.7395 0.123714 12.467 0.194857 12.1789 0.194857L7.61008 0.194571Z" transform="translate(0.541138 8.56226)" fill="white"/>
<path id="Shape_3" fill-rule="evenodd" clip-rule="evenodd" d="M9.82053 1.83215H12.4056C13.0227 1.83215 13.5275 2.3468 13.5275 2.97644V5.61633C13.5275 6.24792 13.0453 6.76001 12.4506 6.76001H7.93298C7.91766 6.43091 7.78491 6.13525 7.5744 5.92139C7.57101 5.91748 7.56686 5.91418 7.56265 5.91077C7.55948 5.9082 7.55627 5.90564 7.55338 5.90283C7.50681 5.8573 7.45862 5.81445 7.40558 5.77759C7.39462 5.77002 7.383 5.76379 7.3714 5.75757C7.36246 5.75281 7.35355 5.74805 7.345 5.74268L7.32874 5.73267C7.29065 5.70935 7.25275 5.68604 7.21173 5.66809C7.18497 5.65625 7.15726 5.64807 7.12946 5.63977C7.11838 5.6366 7.1073 5.6333 7.09625 5.62976C7.08463 5.6261 7.07318 5.62207 7.06177 5.61792C7.04016 5.61035 7.01865 5.60266 6.99609 5.59778C6.92099 5.58167 6.84344 5.57288 6.76376 5.57288C6.68433 5.57288 6.60654 5.58142 6.53113 5.59778C6.50821 5.60266 6.48657 5.61047 6.4649 5.61816C6.45374 5.62219 6.4426 5.6261 6.43124 5.62976C6.41989 5.63342 6.40842 5.63672 6.39697 5.64014C6.36935 5.64819 6.34183 5.65625 6.31577 5.66785C6.27466 5.68579 6.23663 5.70911 6.19864 5.73242L6.18195 5.74268C6.17392 5.74756 6.16559 5.75208 6.15726 5.75647C6.14517 5.76294 6.13309 5.76941 6.12192 5.77734C6.06888 5.81445 6.02042 5.8573 5.97385 5.90283L5.96426 5.91101C5.96042 5.91431 5.9566 5.91736 5.95312 5.92078C5.74286 6.1344 5.60986 6.43091 5.59451 6.7594H1.0769C0.482178 6.7594 0 6.24707 0 5.61572V2.97583C0 2.3468 0.504791 1.83215 1.12186 1.83215H3.70642C3.86285 0.79541 4.70822 0 5.72778 0H7.79919C8.81848 0 9.66464 0.79541 9.82053 1.83215ZM5.7283 1.07043C5.26791 1.07043 4.88104 1.39148 4.74374 1.83215H8.784C8.6467 1.39148 8.25983 1.07043 7.79971 1.07043H5.7283Z" transform="translate(0.268951 1.14539)" fill="white"/>
</g>
</g>
</svg>
