<svg width="14" height="14" viewBox="0 0 14 14" fill="none" xmlns="http://www.w3.org/2000/svg">
<g id="icon/menu/tasks">
<g id="mp3">
<path id="Shape" fill-rule="evenodd" clip-rule="evenodd" d="M1.56522 0H6.26086L6.26093 5.70374H12V12.4445C12 13.4506 11.4622 14 10.4348 14H1.56522C0.521423 14 0 13.4778 0 12.4718V1.55554C0 0.51709 0.521423 0 1.56522 0ZM7.30432 4.66663V0L11.9999 4.66663H7.30432ZM1.71429 10.9375C1.71429 10.6959 1.91016 10.5 2.15179 10.5H6.41965C6.66129 10.5 6.85715 10.6959 6.85715 10.9375C6.85715 11.1791 6.66129 11.375 6.41965 11.375H2.15179C1.91016 11.375 1.71429 11.1791 1.71429 10.9375ZM2.15179 7.875C1.91016 7.875 1.71429 8.07092 1.71429 8.3125C1.71429 8.55408 1.91016 8.75 2.15179 8.75H8.13394C8.37555 8.75 8.57144 8.55408 8.57144 8.3125C8.57144 8.07092 8.37555 7.875 8.13394 7.875H2.15179Z" transform="translate(1)" fill="#000000"/>
</g>
</g>
</svg>
