<svg width="14" height="8" viewBox="0 0 14 8" fill="none" xmlns="http://www.w3.org/2000/svg">
<path d="M13.5664 0.467025C13.7815 0.513288 13.8523 0.769188 13.7597 0.943372C13.6971 1.06589 13.6263 1.18561 13.5582 1.3054C13.5528 1.38979 13.5174 1.46871 13.4412 1.51498C12.8396 2.57385 12.1509 3.57554 11.367 4.51464C11.3643 4.51737 11.3589 4.5201 11.3561 4.5255C12.2598 5.14883 14.4211 6.74119 13.365 7.63675C12.8124 8.10764 11.2119 8.02871 10.5912 7.76194C10.2347 7.60949 9.91071 7.34005 9.60588 7.10048C9.07507 6.684 8.92536 6.70853 8.44901 7.15221C7.83655 7.72381 7.49632 8.08584 6.59262 7.98239C5.53107 7.85987 4.51032 7.2692 3.69914 6.60507C1.9952 5.20329 0.462706 2.84876 0.00542219 0.679335C-0.0299727 0.510556 0.114279 0.379903 0.253127 0.377172C0.261323 0.37444 0.263995 0.371708 0.272191 0.368976C1.0997 0.221992 2.02786 0.186597 2.8635 0.279123C2.94243 0.287318 3.00235 0.319982 3.04861 0.360781C3.07041 0.368976 3.09488 0.382576 3.11394 0.407043C3.77813 1.18834 4.0721 2.21996 4.76348 2.97941C5.09831 3.3469 5.20717 3.28698 5.24256 2.7807C5.2589 2.56293 5.2589 2.34521 5.24803 2.12744C5.21536 1.55857 5.00846 1.06042 4.9214 0.507824C4.9078 0.428898 4.92413 0.358108 4.95952 0.298246C4.97859 0.181193 5.07384 0.069604 5.21269 0.0505407C6.02113 -0.0556441 6.87584 0.0424046 7.69515 0.0178776C7.81493 -0.0147855 7.91019 0.0314773 7.97278 0.113135C8.02997 0.129467 8.08164 0.170266 8.09797 0.243787C8.21776 0.750065 8.20683 1.23461 8.19869 1.75175C8.19323 1.99399 8.18782 2.23897 8.18236 2.48127C8.1769 2.62012 8.1769 2.75891 8.1769 2.89775C8.12244 3.15365 8.22316 3.25164 8.47633 3.19172C8.90368 3.23798 9.02073 2.88415 9.23031 2.55752C9.3555 2.36428 9.47528 2.16557 9.58961 1.96412C9.85637 1.49051 10.0551 0.992366 10.3028 0.510556C10.3463 0.420703 10.4226 0.379903 10.5015 0.369036C10.526 0.355436 10.556 0.34724 10.5859 0.344509C11.5603 0.322713 12.6083 0.262851 13.5664 0.467025Z" fill="#1C236E"/>
</svg>
